<?xml version="1.0" encoding="utf-8"?>
<!-- Generator: Adobe Illustrator 26.0.2, SVG Export Plug-In . SVG Version: 6.00 Build 0)  -->
<svg version="1.1" id="Layer_1" xmlns="http://www.w3.org/2000/svg" xmlns:xlink="http://www.w3.org/1999/xlink" x="0px" y="0px"
	 viewBox="0 0 714 714" style="enable-background:new 0 0 714 714;" xml:space="preserve">
<style type="text/css">
	.st0{fill:#FCD60B;}
	.st1{fill:#FFE23C;}
	.st2{fill:#FF0000;}
	.st3{fill:#FAA41A;}
	.st4{fill:#58B947;}
	.st5{fill:#49C7ED;}
	.st6{fill:#6A2C91;}
	.st7{fill:#F2F2F2;}
	.st8{fill:#F26722;}
	.st9{fill:#FFE539;}
	.st10{fill:#006FBA;}
	.st11{fill:#BB0E82;}
	.st12{fill:#712D91;}
	.st13{fill:#DBBC33;}
	.st14{fill:#DFC500;}
	.st15{fill:#803208;}
	.st16{fill:#EE3D8B;}
	.st17{fill:#970E76;}
	.st18{fill:#2D4245;}
	.st19{fill:#C4A11B;}
	.st20{fill:#93450E;}
	.st21{fill:#9F005B;}
	.st22{fill:#DA1A32;}
	.st23{fill:#005A4A;}
	.st24{fill:#927A0C;}
	.st25{fill:#F37A8A;}
	.st26{fill:#D92632;}
	.st27{fill:#F04B54;}
	.st28{fill:#F05662;}
	.st29{fill:#D0DC9A;}
	.st30{fill:#F58021;}
	.st31{fill:#FFCB58;}
	.st32{fill:#FFDD7F;}
	.st33{fill:#FDC888;}
	.st34{fill:#EE3124;}
	.st35{fill:#FFD69B;}
	.st36{fill:#86B9D8;}
	.st37{fill:#659EC8;}
	.st38{fill:#EFD800;}
	.st39{fill:#9ECF7C;}
	.st40{fill:#62BB46;}
	.st41{fill:#00B6C9;}
	.st42{fill:#C9E9EB;}
	.st43{fill:#FBE99E;}
	.st44{fill:#FFF0C3;}
	.st45{fill:#809699;}
	.st46{fill:#16211F;}
	.st47{fill:#FFFFFF;}
	.st48{fill:#F6A0B3;}
	.st49{fill:#F9C5D1;}
	.st50{fill:#F05674;}
	.st51{fill:#A30C33;}
	.st52{fill:#FCDCE2;}
	.st53{fill:#203232;}
	.st54{fill:#F16B95;}
	.st55{fill:#52B9E9;}
</style>
<g>
	<g>
		<path class="st0" d="M23.5333786,355.6425171c-0.9341412-36.30896,8.0020905-76.0619202,36.0093002-101.2858887
			c46.2338333-39.4434967,113.1107788-17.605957,161.8188019,5.3622437
			c50.8396912,24.5222473,97.0733032,56.9439392,140.927124,92.1155701
			c4.5754395,3.6875305,9.6398926,7.4196777,14.5102844,10.7295837
			c37.70047,25.5560913,80.5861206,42.5718079,122.9145813,58.8173828
			c39.8881531,14.7702637,92.0100403,35.611084,128.6283264,15.7854004
			c16.6316528-9.4927368,27.5117188-25.9769897,36.1541748-43.3057556
			c3.7498779-7.7981873,7.2722778-15.9448853,10.5023193-24.0132751c0.6116333-1.6070557,2.4902344-2.3851624,4.0566406-1.67099
			c1.0136719,0.4551697,1.6531982,1.4059448,1.7639771,2.4363098c1.9057617,18.1502686,1.0736694,36.9727783-4.5837402,55.9821777
			c-7.2322388,25.40802-26.4221802,48.4009705-51.2601929,59.1361694
			c-42.5224609,18.5690613-91.0636597,10.3067627-133.180481-2.5188599
			c-44.3520813-13.9405212-85.490509-36.5401001-122.7372742-64.277771
			c-15.4020081-11.4978943-30.2068787-23.4987793-43.8685913-37.1947632
			c-17.1991272-15.7719727-52.5290833-45.7850037-77.7291412-63.7019958
			c-43.6902924-31.5985413-124.3462753-84.9880524-176.4655762-49.3184509
			c-26.5273018,18.8804321-38.1564674,55.0408325-41.5904541,86.922699
			C29.2713604,359.2987671,23.7147961,359.3643494,23.5333786,355.6425171L23.5333786,355.6425171z"/>
	</g>
	<g>
		<path class="st1" d="M29.4036999,355.1639404c2.7523098,26.7581787,11.9366779,54.7479248,29.4264889,75.1273499
			c56.2132912,63.5078735,160.5731049,2.0103149,217.0391693-34.2937927
			c44.9483337-33.9545288,108.7597961-81.3091431,157.777832-118.5844727
			c23.6752625-17.1469421,47.0580139-35.552124,74.3895874-46.6313019
			c43.9724426-18.0614014,98.0731506-19.9377899,138.8204041,7.6639557
			c32.6473389,21.9042664,47.71875,60.2334595,42.7996826,98.4348145
			c-1.5058594,11.871582-4.6375122,23.1603699-8.8485718,33.806488l-5.7988892-0.9130249
			c-2.4772949-29.3917236-9.4666748-61.1123962-32.2003174-80.5480042
			c-26.9325562-22.8111877-66.2163696-20.0855408-98.0709839-7.9918213
			c-10.7493286,4.1505737-21.2286987,9.1504211-31.1693115,14.9964905
			c-6.0500183,3.6186829-13.8038635,8.5326843-19.8551331,12.2511902
			c-27.9719849,17.2662964-56.5938721,33.4809875-84.6939087,50.6204224
			c-32.7758484,19.8225098-78.5875549,49.6619263-111.2825317,70.5612793
			c-69.8791962,38.6366882-192.972229,91.8042603-251.4555206,10.3114014
			c-13.0780716-18.9817505-19.3732243-40.5821838-21.8940868-62.8709412
			c-0.7941799-7.2964783-1.148222-14.4862366-0.8542271-21.940033H29.4036999L29.4036999,355.1639404z"/>
	</g>
</g>
</svg>
