<?xml version="1.0" encoding="utf-8"?>
<!-- Generator: Adobe Illustrator 26.0.2, SVG Export Plug-In . SVG Version: 6.00 Build 0)  -->
<svg version="1.1" id="Layer_1" xmlns="http://www.w3.org/2000/svg" xmlns:xlink="http://www.w3.org/1999/xlink" x="0px" y="0px"
	 viewBox="0 0 714 714" style="enable-background:new 0 0 714 714;" xml:space="preserve">
<path d="M646.8571777,238.4456787c-40.7472534-27.6017456-94.8479614-25.7253418-138.8203735-7.6640015
	c-27.331604,11.0792236-50.7143555,29.484375-74.3895874,46.6313477
	c-25.8014526,19.6204224-55.7005005,42.0326538-84.7909546,63.8141479
	c-39.8585205-31.0536499-81.8137207-59.4743042-127.494751-81.5083008
	c-48.7080688-22.9682007-115.585022-44.8057861-161.8188477-5.3622437
	c-27.9301758,25.154541-36.8917236,64.7575073-36.0144043,100.9854126
	c-0.2813721,7.3899536,0.0715332,14.5238037,0.859375,21.7619019c2.520813,22.2887573,8.815979,43.8892212,21.894043,62.8709717
	c58.4833374,81.4927979,181.576355,28.3252563,251.4555664-10.3114014
	c13.9192505-8.897522,30.2172852-19.4160156,46.873291-30.0914917c7.9180908,6.7251587,16.0897217,13.1241455,24.4466553,19.362793
	c37.2467651,27.7376709,78.3851929,50.3372192,122.7373047,64.277771
	c42.1168213,12.8256226,90.65802,21.0878906,133.180481,2.5188599
	c24.8380127-10.7352295,44.0279541-33.7281494,51.2601929-59.1361694
	c5.6536255-18.9966431,6.4880371-37.8065796,4.5872192-55.9454956c4.2036133-10.635437,7.3303223-21.911438,8.8344727-33.7692871
	C694.5759277,298.6791382,679.5045166,260.3499146,646.8571777,238.4456787z M275.8693237,395.9974976
	c-56.4660645,36.3040771-160.8258667,97.8016357-217.0391235,34.2937622
	c-17.4385986-20.3197021-26.6168823-48.2047119-29.3987427-74.8916016
	c3.4666748-31.8226929,15.1021729-67.8473511,41.562439-86.6800537
	c52.1193237-35.6696167,132.7753296,17.7199097,176.4655762,49.3184204
	c19.5827637,13.9231567,45.2787476,35.1481323,63.8341675,51.321106
	C298.7026367,378.7987671,286.7319946,387.791687,275.8693237,395.9974976z M664.4959717,393.8610229
	c-8.6424561,17.3287964-19.522522,33.8130493-36.1541748,43.3057861
	c-36.6182861,19.8256836-88.7401733-1.0151367-128.6282959-15.7854004
	c-37.5338745-14.4054565-75.4975586-29.4302368-109.9039307-50.4643555
	c6.7339478-4.1969604,13.1930542-8.1757202,19.210144-11.8148193c28.1000977-17.1394653,56.7219238-33.354126,84.6939697-50.6204224
	c6.0512695-3.7185059,13.8050537-8.6325073,19.8551025-12.2512207c9.9406128-5.8460693,20.4199829-10.8458862,31.1693115-14.99646
	c31.8546143-12.09375,71.1384277-14.819397,98.0709839,7.9918213c22.7336426,19.4356079,29.7230225,51.15625,32.2003174,80.5479736
	l0.0244141,0.0038452c-0.0101318,0.0245972-0.026001,0.0449829-0.0355225,0.0700073
	C671.7682495,377.9161377,668.2458496,386.0628662,664.4959717,393.8610229z"/>
</svg>
